<?xml version="1.0" standalone="no"?>
<!DOCTYPE svg PUBLIC "-//W3C//DTD SVG 20010904//EN"
 "http://www.w3.org/TR/2001/REC-SVG-20010904/DTD/svg10.dtd">
<svg version="1.0" xmlns="http://www.w3.org/2000/svg"
 width="118.000000pt" height="62.000000pt" viewBox="0 0 118.000000 62.000000"
 preserveAspectRatio="xMidYMid meet">

<g transform="translate(0.000000,62.000000) scale(0.100000,-0.100000)"
fill="#000000" stroke="none">
<path d="M573 460 c-12 -5 -24 -18 -28 -30 -10 -32 18 -57 71 -63 55 -6 73
-20 54 -42 -16 -19 -56 -19 -92 -1 -23 12 -29 12 -39 0 -7 -9 -32 -14 -70 -14
-56 0 -59 1 -59 24 0 20 6 25 32 28 46 4 49 28 4 28 -29 0 -36 4 -36 20 0 18
7 20 55 20 42 0 55 3 55 15 0 12 -14 15 -70 15 l-70 0 0 -90 0 -90 75 0 c59 0
75 3 75 14 0 13 4 13 35 0 70 -29 145 -8 145 41 0 35 -25 54 -80 61 -33 4 -50
11 -50 21 0 21 29 28 64 14 44 -17 48 -17 53 -3 3 7 -10 18 -31 27 -40 17 -61
18 -93 5z"/>
<path d="M752 375 c-23 -47 -42 -87 -42 -90 0 -16 32 -1 42 20 10 21 18 25 58
25 40 0 48 -4 58 -25 10 -21 42 -36 42 -20 0 3 -19 43 -42 90 -26 52 -48 85
-58 85 -10 0 -32 -33 -58 -85z m76 10 c11 -24 10 -25 -18 -25 -28 0 -29 1 -18
25 6 14 14 25 18 25 4 0 12 -11 18 -25z"/>
<path d="M930 370 l0 -90 75 0 c60 0 75 3 75 15 0 12 -13 15 -60 15 -57 0 -60
1 -60 24 0 20 6 25 32 28 46 4 49 28 4 28 -29 0 -36 4 -36 20 0 18 7 20 55 20
42 0 55 3 55 15 0 12 -14 15 -70 15 l-70 0 0 -90z"/>
<path d="M373 254 c-8 -21 13 -42 28 -27 13 13 5 43 -11 43 -6 0 -13 -7 -17
-16z"/>
<path d="M430 245 c0 -17 5 -25 18 -24 10 0 12 3 5 6 -7 2 -13 11 -13 18 0 7
6 16 13 18 7 3 5 6 -5 6 -13 1 -18 -7 -18 -24z"/>
<path d="M478 254 c-4 -14 0 -20 13 -20 12 0 19 7 19 21 0 15 -2 17 -9 6 -7
-11 -9 -11 -13 0 -3 9 -6 6 -10 -7z"/>
<path d="M532 250 c0 -14 2 -19 5 -12 2 6 2 18 0 25 -3 6 -5 1 -5 -13z"/>
<path d="M561 254 c-1 -12 5 -21 14 -21 8 0 15 7 15 14 0 8 -4 12 -9 9 -5 -4
-12 0 -14 6 -3 7 -6 4 -6 -8z"/>
<path d="M641 253 c-1 -12 4 -25 10 -29 11 -7 29 12 29 31 -1 6 -6 1 -12 -10
-12 -19 -12 -19 -19 5 -6 23 -7 23 -8 3z"/>
<path d="M690 253 c0 -12 8 -19 20 -20 15 -1 20 4 19 20 0 12 -3 16 -6 9 -4
-10 -8 -10 -19 -1 -11 9 -14 8 -14 -8z"/>
<path d="M770 263 c0 -15 19 -37 26 -31 3 4 -1 14 -10 23 -9 9 -16 13 -16 8z"/>
<path d="M822 248 c2 -12 10 -23 18 -25 12 -4 12 -3 2 5 -8 5 -14 13 -14 17 0
4 6 12 14 16 10 7 9 9 -5 9 -13 0 -17 -6 -15 -22z"/>
<path d="M870 253 c0 -12 7 -19 19 -19 23 0 21 30 -2 34 -11 2 -17 -3 -17 -15z"/>
<path d="M925 260 c-3 -6 1 -13 10 -16 13 -6 14 -8 3 -15 -9 -6 -9 -9 -1 -9
20 0 26 20 8 26 -13 6 -14 8 -3 15 9 6 9 9 1 9 -6 0 -15 -5 -18 -10z"/>
<path d="M972 250 c0 -14 2 -19 5 -12 2 6 2 18 0 25 -3 6 -5 1 -5 -13z"/>
<path d="M1007 250 c3 -11 7 -20 8 -20 1 0 5 9 8 20 3 12 0 20 -8 20 -8 0 -11
-8 -8 -20z"/>
<path d="M1051 248 c5 -10 11 -18 13 -18 2 0 6 8 8 18 4 12 -1 18 -13 18 -14
0 -15 -4 -8 -18z"/>
<path d="M751 244 c0 -11 3 -14 6 -6 3 7 2 16 -1 19 -3 4 -6 -2 -5 -13z"/>
<path d="M670 200 c0 -5 5 -10 11 -10 5 0 7 5 4 10 -3 6 -8 10 -11 10 -2 0 -4
-4 -4 -10z"/>
<path d="M718 158 c6 -6 18 -8 28 -6 14 3 12 5 -9 10 -19 3 -25 2 -19 -4z"/>
<path d="M388 153 c7 -3 16 -2 19 1 4 3 -2 6 -13 5 -11 0 -14 -3 -6 -6z"/>
<path d="M458 153 c7 -3 16 -2 19 1 4 3 -2 6 -13 5 -11 0 -14 -3 -6 -6z"/>
<path d="M658 153 c7 -3 16 -2 19 1 4 3 -2 6 -13 5 -11 0 -14 -3 -6 -6z"/>
<path d="M838 153 c7 -3 16 -2 19 1 4 3 -2 6 -13 5 -11 0 -14 -3 -6 -6z"/>
<path d="M908 153 c7 -3 16 -2 19 1 4 3 -2 6 -13 5 -11 0 -14 -3 -6 -6z"/>
</g>
</svg>
